Coordinates
version=1
nRows=17
nColumns=36
inDegrees=yes

Units are S.I. units (second, meters, Newtons, ...)
If the header above contains a line with 'inDegrees', this indicates whether rotational values are in degrees (yes) or radians (no).

endheader
time	pelvis_tilt	pelvis_list	pelvis_rotation	pelvis_tx	pelvis_ty	pelvis_tz	hip_flexion_r	hip_adduction_r	hip_rotation_r	knee_angle_r	knee_angle_r_beta	ankle_angle_r	subtalar_angle_r	mtp_angle_r	hip_flexion_l	hip_adduction_l	hip_rotation_l	knee_angle_l	knee_angle_l_beta	ankle_angle_l	subtalar_angle_l	mtp_angle_l	lumbar_extension	lumbar_bending	lumbar_rotation	arm_flex_r	arm_add_r	arm_rot_r	elbow_flex_r	pro_sup_r	arm_flex_l	arm_add_l	arm_rot_l	elbow_flex_l	pro_sup_l
     10.68000000	    -16.34573295	     -0.17313323	      0.64077454	     -0.48944994	      0.59734616	     -0.68581522	     95.62182660	    -16.22841142	      5.47084857	     97.40990321	      1.70012354	     25.62730708	     -1.17576642	     -7.49999987	     95.67320691	    -12.94637204	      2.06339085	     96.66963361	      1.68720339	     24.41533236	     -3.30590774	     -7.49999987	    -23.21054287	      0.30924140	     -1.80138015	     54.98044897	    -16.76213983	     12.92187895	    109.51189810	     99.86756448	     58.13068252	    -19.06139606	     13.70482804	    108.09492415	    103.34159190
     10.69000000	    -15.49547781	     -0.18158082	      0.67677364	     -0.49198197	      0.59404902	     -0.68547835	     95.47406290	    -16.14470642	      5.67965851	     98.04953103	      1.71128715	     25.53854002	     -1.20843693	     -7.49999987	     95.55532892	    -12.99106878	      2.20126735	     97.26713445	      1.69763175	     24.33153357	     -3.26450730	     -7.49999987	    -23.46333541	      0.31820705	     -1.83112309	     54.37886351	    -16.63175532	     12.98735600	    109.24980220	     99.84276576	     57.67221254	    -18.80461025	     13.80691962	    107.90384789	    103.32392372
     10.70000000	    -14.51751981	     -0.16577076	      0.70410734	     -0.49463640	      0.59109833	     -0.68516071	     95.17470190	    -16.03583631	      5.94176595	     98.63305955	      1.72147164	     25.42495055	     -1.28018073	     -7.49999987	     95.26372767	    -13.03510352	      2.32711903	     97.81777810	      1.70724229	     24.22895105	     -3.09688573	     -7.49999987	    -23.79465768	      0.30094779	     -1.81766311	     53.80085534	    -16.42609510	     12.94309361	    108.83439179	     99.78401788	     57.27638372	    -18.39117561	     13.79792082	    107.46971828	    103.25710533
     10.71000000	    -13.71806342	     -0.14999379	      0.76169518	     -0.49723997	      0.58799402	     -0.68494070	     95.04811365	    -15.97421832	      6.19208044	     99.18617483	      1.73112532	     25.38150161	     -1.36093743	     -7.49999987	     95.13226033	    -13.00005740	      2.47053873	     98.32860432	      1.71615789	     24.16682320	     -3.09214434	     -7.49999987	    -23.89770734	      0.30192528	     -1.86958325	     53.12921908	    -16.33157016	     13.10987961	    108.72262353	     99.77471273	     56.69246085	    -18.20742351	     13.94545527	    107.41867173	    103.25505166
     10.72000000	    -12.73413909	     -0.03236400	      0.82461415	     -0.49992841	      0.58526104	     -0.68469292	     94.75928355	    -15.91899868	      6.55443940	     99.75408610	      1.74103724	     25.27409400	     -1.50996521	     -7.49999987	     94.75739255	    -12.99127391	      2.46154917	     98.81599734	      1.72466451	     24.05076186	     -2.99608388	     -7.49999987	    -24.12775843	      0.17032518	     -1.93413789	     52.51182832	    -16.16153587	     13.15405904	    108.38886870	     99.71592109	     56.17976661	    -17.94273500	     13.94774555	    107.18880603	    103.21429474
     10.73000000	    -11.88796321	     -0.00662633	      0.85774545	     -0.50269154	      0.58233744	     -0.68444586	     94.57763380	    -15.79310546	      6.82379203	    100.26125295	      1.74988898	     25.21335609	     -1.57656074	     -7.49999987	     94.55708655	    -12.92311777	      2.65140255	     99.28016106	      1.73276569	     23.98407396	     -3.00495112	     -7.49999987	    -24.17347240	      0.13226800	     -1.96870760	     51.80492046	    -16.10786063	     13.34000972	    108.28121476	     99.70936912	     55.54170088	    -17.78839545	     14.13993737	    107.17717712	    103.22177005
     10.74000000	    -10.96228408	      0.02139196	      0.89099669	     -0.50538824	      0.57934363	     -0.68410493	     94.33002248	    -15.66815823	      7.08805078	    100.82166924	      1.75967009	     25.13399230	     -1.65125735	     -7.49999987	     94.30470954	    -12.89130932	      2.83287393	     99.81109067	      1.74203216	     23.89559584	     -2.99918625	     -7.49999987	    -24.20363162	      0.06813167	     -1.98205822	     51.09925467	    -16.07762345	     13.48542058	    108.09397041	     99.69652117	     54.88127188	    -17.59278347	     14.27012321	    107.09764074	    103.21708611
     10.75000000	     -9.84961770	      0.04538529	      0.87820000	     -0.50820733	      0.57667087	     -0.68365930	     93.86210737	    -15.49172735	      7.33887429	    101.35785719	      1.76902833	     24.94708012	     -1.74925156	     -7.49999987	     93.86156120	    -12.93968081	      3.01202947	    100.34387236	      1.75133096	     23.76792887	     -2.89138379	     -7.49999987	    -24.36219731	     -0.02402886	     -1.92866177	     50.51457502	    -16.01248551	     13.53112623	    107.62808899	     99.64467523	     54.28891262	    -17.14722599	     14.15160263	    106.68252601	    103.15289858
     10.76000000	     -8.95349519	      0.03344715	      0.92081122	     -0.51104280	      0.57383651	     -0.68341715	     93.57421158	    -15.34279126	      7.59702163	    101.82056866	      1.77710417	     24.86814887	     -1.79041183	     -7.49999987	     93.61444989	    -12.84990200	      3.24217260	    100.77053696	      1.75877766	     23.70494438	     -2.89486008	     -7.49999987	    -24.28584526	     -0.01213144	     -1.92278090	     49.77992675	    -15.97404872	     13.75285608	    107.51011727	     99.63931550	     53.57790272	    -16.97475449	     14.32883609	    106.64155284	    103.15875353
     10.77000000	     -7.84532206	      0.02134781	      0.94531425	     -0.51373845	      0.57123855	     -0.68324997	     93.10724865	    -15.35171870	      7.70198509	    102.35644489	      1.78645697	     24.65536894	     -1.83041050	     -7.49999987	     93.19052376	    -12.86125284	      3.39738698	    101.32585059	      1.76846971	     23.58103590	     -2.78580547	     -7.49999987	    -24.33288644	     -0.01840115	     -1.85707650	     49.17279416	    -16.01475928	     13.91298757	    107.01705253	     99.56672152	     52.82787957	    -16.63110822	     14.20519033	    106.26668247	    103.10484702
     10.78000000	     -6.86208590	     -0.00288609	      1.07768231	     -0.51638745	      0.56886400	     -0.68331052	     92.68184407	    -15.40854487	      7.85440288	    102.80402423	      1.79426871	     24.49806849	     -1.89571532	     -7.49999987	     92.80162101	    -12.65622725	      3.60011234	    101.73769557	      1.77565776	     23.51297668	     -2.72946585	     -7.49999987	    -24.20558625	      0.02342132	     -1.95192658	     48.45241499	    -16.02841697	     14.13942009	    106.65632442	     99.50296126	     51.98638299	    -16.34297643	     14.18458156	    106.05142762	    103.06342966
     10.79000000	     -5.83881811	      0.00504631	      1.22026203	     -0.51899915	      0.56722655	     -0.68329821	     92.12588414	    -15.46834638	      8.03608685	    103.16951435	      1.80064771	     24.35541208	     -1.91778906	     -7.49999987	     92.26352922	    -12.41649697	      3.80308583	    102.04743424	      1.78106372	     23.42265431	     -2.72219207	     -7.49999987	    -24.16349866	     -0.00927200	     -2.04778243	     47.66406096	    -16.00518001	     14.31083908	    106.28703393	     99.44849963	     51.11044864	    -16.01324250	     14.15538476	    105.85041496	    103.02121133
     10.80000000	     -5.02256455	      0.00521590	      1.24547258	     -0.52163024	      0.56616081	     -0.68304233	     91.64846378	    -15.30909562	      8.23112236	    103.35941039	      1.80396202	     24.27697291	     -1.92114900	     -7.49999987	     91.80516916	    -12.24745265	      4.04074763	    102.20939112	      1.78389040	     23.34232862	     -2.71802832	     -7.49999987	    -23.98635589	     -0.07374945	     -2.03366851	     46.74619398	    -15.93953347	     14.55037876	    106.14900615	     99.44023689	     50.18820961	    -15.86929107	     14.33082900	    105.81741544	    103.02628328
     10.81000000	     -4.11705204	     -0.01514639	      1.23331478	     -0.52395724	      0.56613528	     -0.68292564	     90.95670917	    -15.26636936	      8.22534751	    103.46218430	      1.80575577	     24.09775794	     -1.90951101	     -7.49999987	     91.16832297	    -12.29251369	      4.08341573	    102.34622329	      1.78627857	     23.14468118	     -2.63023546	     -7.49999987	    -23.85848716	     -0.08122574	     -1.98645871	     45.74426153	    -15.74645783	     14.45706803	    105.64863758	     99.35494445	     48.94685473	    -15.53453997	     14.01018819	    105.63844897	    102.98183448
     10.82000000	     -3.48583570	     -0.03747592	      1.30284462	     -0.52604784	      0.56661366	     -0.68315876	     90.40069487	    -15.27441421	      8.27860894	    103.41352954	      1.80490658	     24.02584917	     -1.92095923	     -7.49999987	     90.66894221	    -12.11721389	      4.17224898	    102.31522140	      1.78573749	     23.05299500	     -2.59597301	     -7.49999987	    -23.49874494	     -0.06305662	     -2.01542734	     44.57669193	    -15.66164406	     14.64826980	    105.51006945	     99.34477190	     47.65107653	    -15.37750402	     14.18363751	    105.63071993	    102.99319363
     10.83000000	     -3.14811753	     -0.13292746	      1.64442564	     -0.52757747	      0.56741926	     -0.68410030	     90.02541639	    -15.74984312	      8.10073512	    103.30648987	      1.80303839	     23.93882997	     -2.02317771	     -7.49999987	     90.39771388	    -11.65582278	      4.25533212	    102.14796414	      1.78281830	     22.85681265	     -2.51967362	     -7.49999987	    -22.68314110	      0.17884410	     -2.32525919	     43.03336421	    -15.29409520	     14.21072873	    105.10254134	     99.26412158	     45.72870830	    -14.79694863	     13.48797431	    105.62244628	    102.95584430
     10.84000000	     -2.78415858	     -0.19563183	      1.76258716	     -0.52901023	      0.56888366	     -0.68433040	     89.52987000	    -15.86247533	      7.98854698	    103.08373353	      1.79915056	     23.83110227	     -2.10255346	     -7.49999987	     89.96531575	    -11.43939023	      4.35700037	    101.93254338	      1.77905850	     22.66400833	     -2.50301413	     -7.49999987	    -21.97840925	      0.26670222	     -2.49030827	     41.48740738	    -14.80867462	     14.02805775	    104.83009399	     99.18847527	     43.77430125	    -14.32234820	     12.79314581	    105.73237058	    102.93013921
